<?xml version="1.0" standalone="no"?>
<!DOCTYPE svg PUBLIC "-//W3C//DTD SVG 20010904//EN"
 "http://www.w3.org/TR/2001/REC-SVG-20010904/DTD/svg10.dtd">
<svg version="1.0" xmlns="http://www.w3.org/2000/svg"
 width="300.000000pt" height="159.000000pt" viewBox="0 0 300.000000 159.000000"
 preserveAspectRatio="xMidYMid meet">
<metadata>
Created by potrace 1.10, written by Peter Selinger 2001-2011
</metadata>
<g transform="translate(0.000000,159.000000) scale(0.100000,-0.100000)"
fill="#000000" stroke="none">
<path d="M428 1347 l-158 -132 0 -527 c0 -463 2 -528 15 -528 12 0 15 15 15
77 l0 78 25 -38 c32 -47 54 -47 82 1 l22 37 1 -77 c0 -63 3 -78 15 -78 12 0
15 18 15 100 0 93 -1 100 -20 100 -12 0 -29 -16 -46 -46 -15 -25 -30 -42 -33
-37 -62 75 -62 74 -59 215 l3 133 23 -37 c13 -21 30 -38 37 -38 7 0 24 17 37
38 l23 37 3 -77 c2 -60 6 -78 17 -78 12 0 15 20 15 105 0 120 -10 131 -56 68
-16 -21 -31 -42 -35 -46 -4 -5 -21 12 -38 36 l-31 46 0 259 c0 219 2 262 15
272 13 11 15 7 15 -30 0 -61 24 -47 28 17 2 36 9 56 24 69 l21 19 -5 -58 c-3
-39 -1 -56 6 -54 6 2 12 30 14 63 2 36 9 65 19 76 29 33 36 21 29 -49 -6 -58
-5 -65 8 -54 10 9 16 36 18 83 3 67 5 72 37 96 l33 26 -3 -176 -4 -176 55 46
c30 25 63 52 72 60 16 13 17 11 11 -24 -4 -31 -20 -53 -70 -105 l-64 -65 -2
-117 c-2 -106 0 -117 16 -117 15 0 17 12 17 110 l0 110 71 67 70 68 -3 77 -3
77 -67 -60 -68 -61 0 119 0 120 43 -1 42 -1 3 58 3 57 -48 0 c-47 -1 -52 -4
-205 -133z m212 79 c0 -17 -7 -25 -25 -28 -22 -5 -25 -2 -25 23 0 24 4 29 25
29 20 0 25 -5 25 -24z"/>
<path d="M950 1419 l0 -62 45 6 45 7 0 -122 0 -122 -32 29 c-18 17 -50 45 -70
64 l-38 35 0 -80 0 -80 70 -69 70 -69 0 -108 c0 -89 3 -108 15 -108 12 0 15
20 15 117 l0 118 -71 71 c-61 62 -70 75 -67 102 l3 31 68 -60 67 -61 0 177 0
177 32 -27 c31 -27 32 -30 29 -94 -2 -52 1 -70 13 -80 14 -12 16 -6 16 53 0
36 4 66 9 66 21 0 34 -34 32 -84 -2 -38 2 -56 13 -65 14 -12 16 -7 16 44 0 57
0 58 20 40 13 -12 20 -33 22 -68 2 -28 8 -52 15 -54 8 -3 10 8 6 36 -6 40 7
55 23 29 4 -6 6 -114 5 -240 -2 -225 -2 -228 18 -228 21 0 21 4 20 238 l0 237
-161 133 c-152 125 -162 132 -204 132 l-44 0 0 -61z m90 6 c0 -21 -5 -25 -30
-25 -25 0 -30 4 -30 25 0 21 5 25 30 25 25 0 30 -4 30 -25z"/>
<path d="M538 575 c-41 -94 -44 -105 -27 -105 12 0 23 10 29 25 8 22 15 25 58
25 42 0 50 -3 60 -25 11 -23 42 -36 42 -16 0 22 -91 201 -102 201 -7 0 -34
-47 -60 -105z m80 22 c17 -46 16 -47 -22 -47 l-34 0 15 40 c9 22 19 40 23 40
3 0 11 -15 18 -33z"/>
<path d="M740 575 c0 -85 3 -105 15 -105 11 0 15 17 17 76 l3 76 50 -73 c28
-41 58 -75 68 -77 15 -3 17 7 17 102 0 86 -3 106 -15 106 -11 0 -15 -17 -17
-76 l-3 -75 -53 75 c-73 105 -82 102 -82 -29z"/>
<path d="M960 600 c0 -73 3 -83 25 -105 31 -32 86 -34 115 -5 16 16 20 35 22
90 0 39 1 76 2 82 1 7 -7 14 -16 16 -16 3 -18 -6 -18 -75 0 -84 -9 -103 -46
-103 -41 0 -54 25 -54 106 0 59 -3 74 -15 74 -12 0 -15 -16 -15 -80z"/>
<path d="M1174 671 c-2 -2 -4 -49 -4 -103 0 -93 1 -98 21 -98 18 0 20 5 18 48
l-3 47 44 1 c35 0 46 5 48 18 3 15 -3 17 -45 15 -45 -3 -48 -2 -48 21 0 23 3
24 58 21 51 -2 57 0 57 17 0 17 -7 19 -71 18 -39 -1 -72 -3 -75 -5z"/>
<path d="M1391 663 c-5 -10 -27 -57 -49 -105 -37 -80 -39 -88 -21 -88 12 0 23
10 29 25 8 22 15 25 60 25 45 0 52 -3 60 -25 9 -24 40 -36 40 -16 0 20 -89
201 -99 201 -6 0 -14 -8 -20 -17z m41 -73 l17 -40 -39 0 -39 0 17 40 c9 22 19
40 22 40 3 0 13 -18 22 -40z"/>
<path d="M1550 575 c0 -87 3 -105 15 -105 11 0 15 11 15 39 0 21 6 44 14 50
11 9 21 2 51 -39 23 -31 44 -50 57 -50 22 0 23 -1 -54 99 l-19 24 48 43 c39
35 44 43 28 44 -12 0 -44 -22 -73 -48 l-52 -48 0 48 c0 36 -4 48 -15 48 -12 0
-15 -18 -15 -105z"/>
<path d="M1733 668 c-9 -16 10 -29 40 -26 l32 3 1 -85 c1 -70 5 -86 18 -88 14
-3 16 9 16 85 l0 89 35 -4 c29 -3 35 -1 35 15 0 16 -9 18 -86 18 -47 0 -88 -3
-91 -7z"/>
<path d="M1941 595 c4 -77 7 -89 28 -106 30 -24 82 -24 112 0 21 17 24 29 28
106 3 80 2 87 -15 83 -16 -3 -19 -14 -22 -78 -3 -81 -12 -100 -47 -100 -37 0
-50 27 -50 104 -1 60 -3 71 -19 74 -17 4 -18 -3 -15 -83z"/>
<path d="M2160 676 c-1 -1 -1 -46 -2 -101 -1 -85 1 -100 16 -103 13 -3 16 5
16 37 0 34 3 41 19 41 11 0 34 -18 51 -40 17 -22 38 -40 46 -40 20 0 18 8 -11
46 l-25 33 26 26 c26 26 26 56 0 81 -8 9 -133 26 -136 20z m118 -60 c5 -24
-14 -36 -55 -36 -31 0 -33 2 -33 33 l0 33 42 -5 c31 -4 44 -11 46 -25z"/>
<path d="M2421 658 c-5 -13 -25 -58 -45 -102 -20 -43 -36 -80 -36 -82 0 -2 9
-4 20 -4 13 0 22 9 26 25 6 23 11 25 59 25 48 0 53 -2 59 -25 4 -16 13 -25 26
-25 11 0 20 1 20 3 0 1 -20 47 -45 102 -46 102 -68 124 -84 83z m59 -100 c0
-5 -16 -8 -35 -8 -19 0 -35 2 -35 4 0 2 7 21 16 42 l16 39 19 -35 c10 -19 18
-38 19 -42z"/>
<path d="M1184 409 c-3 -6 -2 -15 4 -21 13 -13 32 -2 32 18 0 16 -26 19 -36 3z"/>
<path d="M775 360 c-62 -24 -57 -78 10 -109 31 -15 45 -27 45 -41 0 -16 -7
-20 -36 -20 -19 0 -44 5 -55 10 -16 9 -19 7 -19 -9 0 -14 10 -23 34 -29 46
-13 84 -4 102 24 23 34 9 62 -41 86 -25 12 -47 27 -49 35 -8 20 28 35 59 23
34 -13 35 -13 35 5 0 9 -12 20 -26 25 -29 12 -32 12 -59 0z"/>
<path d="M537 260 c-41 -90 -44 -100 -26 -100 12 0 23 10 29 25 8 22 15 25 60
25 45 0 50 -2 56 -25 4 -16 13 -25 26 -25 11 0 18 4 16 9 -41 106 -85 191 -98
191 -11 0 -32 -33 -63 -100z m79 25 c19 -46 19 -45 -20 -45 l-35 0 17 40 c9
22 18 40 20 40 2 0 10 -16 18 -35z"/>
<path d="M936 274 c-21 -48 -40 -93 -43 -100 -3 -9 2 -14 15 -14 13 0 22 9 26
25 6 22 11 25 56 25 45 0 50 -3 56 -25 4 -18 13 -25 29 -25 23 0 22 2 -23 100
-31 67 -52 100 -62 100 -11 0 -29 -29 -54 -86z m61 -32 c-16 -2 -31 -1 -34 1
-2 3 3 22 12 43 l16 39 18 -40 18 -40 -30 -3z"/>
<path d="M1130 345 c0 -12 13 -15 56 -15 l55 0 -60 -73 c-34 -41 -61 -79 -61
-85 0 -8 27 -12 85 -12 68 0 85 3 85 15 0 10 -16 15 -60 17 l-61 3 55 65 c81
96 81 100 -15 100 -64 0 -79 -3 -79 -15z"/>
<path d="M1328 278 c4 -100 16 -118 79 -118 68 0 83 22 83 120 0 64 -3 80 -15
80 -12 0 -15 -15 -15 -73 0 -80 -9 -97 -50 -97 -41 0 -50 17 -50 97 0 63 -2
73 -17 73 -16 0 -18 -9 -15 -82z"/>
</g>
</svg>
